<svg width="16" height="16" viewBox="0 0 16 16" fill="none" xmlns="http://www.w3.org/2000/svg">
<path fill-rule="evenodd" clip-rule="evenodd" d="M12.4714 3.5286C12.7318 3.78894 12.7318 4.21105 12.4714 4.4714L4.47141 12.4714C4.21106 12.7318 3.78895 12.7318 3.5286 12.4714C3.26825 12.2111 3.26825 11.7889 3.5286 11.5286L11.5286 3.5286C11.7889 3.26825 12.2111 3.26825 12.4714 3.5286Z" fill="#FF377F"/>
<path fill-rule="evenodd" clip-rule="evenodd" d="M3.5286 3.5286C3.78895 3.26825 4.21106 3.26825 4.47141 3.5286L12.4714 11.5286C12.7318 11.7889 12.7318 12.2111 12.4714 12.4714C12.2111 12.7318 11.7889 12.7318 11.5286 12.4714L3.5286 4.4714C3.26825 4.21105 3.26825 3.78894 3.5286 3.5286Z" fill="#FF377F"/>
</svg>
